<svg width="100" height="100" viewBox="0 0 100 100" fill="none" xmlns="http://www.w3.org/2000/svg">
<g clip-path="url(#clip0_2_2)">
<rect width="100" height="100" rx="10" fill="url(#paint0_linear_2_2)"/>
<g filter="url(#filter0_d_2_2)">
<path d="M20 50H81V53.5C81 70.3447 67.3447 84 50.5 84V84C33.6553 84 20 70.3447 20 53.5V50Z" fill="#9D2727"/>
</g>
<path d="M78 50L23 50V50C23 36.1929 34.1929 25 48 25H53C66.8071 25 78 36.1929 78 50V50Z" fill="#FCFCFC"/>
<rect x="17" y="60.1252" width="61" height="4" transform="rotate(-38.6824 17 60.1252)" fill="#299A1F"/>
<rect x="27" y="63.8113" width="61" height="4" transform="rotate(-31.4327 27 63.8113)" fill="#299A1F"/>
</g>
<defs>
<filter id="filter0_d_2_2" x="16" y="50" width="69" height="42" filterUnits="userSpaceOnUse" color-interpolation-filters="sRGB">
<feFlood flood-opacity="0" result="BackgroundImageFix"/>
<feColorMatrix in="SourceAlpha" type="matrix" values="0 0 0 0 0 0 0 0 0 0 0 0 0 0 0 0 0 0 127 0" result="hardAlpha"/>
<feOffset dy="4"/>
<feGaussianBlur stdDeviation="2"/>
<feComposite in2="hardAlpha" operator="out"/>
<feColorMatrix type="matrix" values="0 0 0 0 0 0 0 0 0 0 0 0 0 0 0 0 0 0 0.25 0"/>
<feBlend mode="normal" in2="BackgroundImageFix" result="effect1_dropShadow_2_2"/>
<feBlend mode="normal" in="SourceGraphic" in2="effect1_dropShadow_2_2" result="shape"/>
</filter>
<linearGradient id="paint0_linear_2_2" x1="50" y1="0" x2="78" y2="83" gradientUnits="userSpaceOnUse">
<stop stop-color="#F2CC06"/>
<stop offset="1" stop-color="#BF4B4B"/>
</linearGradient>
<clipPath id="clip0_2_2">
<rect width="100" height="100" rx="10" fill="white"/>
</clipPath>
</defs>
</svg>
